<?xml version="1.0" encoding="utf-8"?>
<!-- Generator: Adobe Illustrator 24.1.2, SVG Export Plug-In . SVG Version: 6.00 Build 0)  -->
<svg version="1.1" id="Camada_1" xmlns="http://www.w3.org/2000/svg" xmlns:xlink="http://www.w3.org/1999/xlink" x="0px" y="0px"
	 viewBox="0 0 881 949.2" style="enable-background:new 0 0 881 949.2;" xml:space="preserve">
<style type="text/css">
	.st0{fill:#FFC107;}
	.st1{clip-path:url(#SVGID_2_);}
	.st2{fill:#ECC19C;}
	.st3{fill:#C5D4E2;}
	.st4{fill:#543E36;}
	.st5{fill:#1A1A1A;}
	.st6{fill:#415364;}
	.st7{fill:#141720;}
	.st8{fill:#E7ECF2;}
	.st9{opacity:0.5;fill:#ECC19C;enable-background:new    ;}
</style>
<g>
	<g id="Camada_1_1_">
		<g id="OBJECTS">
			<image style="overflow:visible;opacity:0.39;enable-background:new    ;" width="881" height="881" xlink:href="B732CE7D.png" >
			</image>
			<circle class="st0" cx="432.5" cy="430.5" r="371.5"/>
			<g>
				<defs>
					<circle id="SVGID_1_" cx="432.5" cy="430.5" r="371.5"/>
				</defs>
				<clipPath id="SVGID_2_">
					<use xlink:href="#SVGID_1_"  style="overflow:visible;"/>
				</clipPath>
				<g class="st1">
					<path class="st2" d="M597.8,267.5v123.5c0,1.8,0,3.6-0.1,5.4c-0.1,3.7-0.3,7.4-0.6,11c-0.1,1.3-0.2,2.5-0.4,3.8
						c-0.5,5.2-1.3,10.4-2.2,15.5c-0.3,1.7-0.7,3.4-1,5c0,0.3-0.1,0.7-0.2,1c-0.3,1.7-0.7,3.4-1.1,5c-0.2,0.9-0.4,1.8-0.6,2.7
						s-0.4,1.5-0.7,2.3c-0.9,3.3-1.9,6.6-2.8,9.8c-0.5,1.5-0.9,3-1.5,4.6c0,0.2-0.1,0.3-0.2,0.5c-0.5,1.4-0.9,2.8-1.5,4.1
						c-0.2,0.4-0.3,0.8-0.5,1.3c-0.5,1.3-0.9,2.6-1.5,3.9c-0.6,1.6-1.3,3.1-1.9,4.6s-1.2,2.8-1.8,4.1c-0.1,0.2-0.2,0.4-0.3,0.7
						c-0.7,1.5-1.3,2.9-2,4.3s-1.4,3-2.2,4.5c-1.5,3-3,5.9-4.6,8.8l-2.2,3.9c-6.1,10.6-13.1,20.7-20.8,30.2c-1,1.3-2.1,2.6-3.2,3.9
						c-1.5,1.9-3,3.6-4.6,5.4c-1.4,1.5-2.8,3.1-4.2,4.6c-3.9,4.3-7.9,8.3-12,12c-0.8,0.8-1.7,1.5-2.5,2.3c-1.4,1.3-2.8,2.5-4.2,3.7
						c-1.1,1-2.2,1.9-3.4,2.8c-2.9,2.4-5.8,4.7-8.8,6.9c-1.2,0.9-2.5,1.9-3.7,2.7c-2,1.5-4.1,2.8-6.2,4.2c-1.1,0.8-2.3,1.5-3.5,2.2
						c-4.1,2.5-8.4,4.9-12.5,6.9c-1,0.5-2,1-3,1.5s-2.1,0.9-3.2,1.5c-1.3,0.6-2.7,1.2-4,1.7c-0.5,0.2-1,0.4-1.6,0.6
						c-1.6,0.7-3.2,1.3-4.8,1.8c-2,0.7-4,1.3-6,1.9c-1.4,0.4-2.8,0.8-4.2,1.1c-0.1,0.1-0.2,0.1-0.3,0.1c-1.4,0.3-2.8,0.7-4.1,0.9
						c-0.4,0.1-0.7,0.2-1.1,0.2c-1.1,0.2-2.3,0.4-3.4,0.5c-1.6,0.2-3.3,0.4-4.9,0.5c-0.6,0.1-1.1,0.1-1.7,0.1
						c-1.3,0.1-2.6,0.1-3.9,0.1h-0.1c-1.3,0-2.5,0-3.8-0.1c-0.5,0-1,0-1.5-0.1c-1.1,0-2.3-0.2-3.5-0.3c-0.3,0-0.5,0-0.8-0.1
						c-1.5-0.2-3-0.5-4.5-0.7c-1.3-0.2-2.6-0.5-3.9-0.8c-7.3-1.7-14.5-4.1-21.3-7.2c-6.4-2.9-12.6-6.1-18.6-9.8
						c-3.1-1.8-6.3-3.9-9.3-6.1c-1.5-1.1-3.1-2.2-4.6-3.3c-4.8-3.5-9.6-7.4-14.3-11.5c-1.3-1.2-2.6-2.3-3.9-3.6s-2.6-2.4-3.9-3.6
						c-3.2-3-6.3-6.2-9.3-9.5c-1.2-1.2-2.3-2.5-3.5-3.9c-3.3-3.7-6.4-7.4-9.4-11.4c-1.2-1.4-2.3-2.9-3.4-4.3
						c-4.1-5.4-8-11.1-11.7-17c-0.9-1.6-2-3.2-2.9-4.8c-1.1-1.9-2.2-3.9-3.3-5.8c-4.1-7.4-7.8-14.9-11.1-22.7
						c-0.5-1.1-1-2.3-1.4-3.4c-0.6-1.5-1.2-3-1.8-4.4c-0.8-2.1-1.6-4.3-2.3-6.5s-1.4-4.3-2.1-6.5c-0.7-2.2-1.3-4.2-1.9-6.4
						c-0.6-2.2-1.3-4.6-1.8-7c0-0.2-0.1-0.5-0.2-0.7c-0.8-3.2-1.5-6.5-2.1-9.9c-0.8-4.4-1.5-8.9-2-13.4c-0.2-1.4-0.3-2.9-0.4-4.3
						s-0.3-3-0.4-4.5c-0.2-2.7-0.3-5.5-0.4-8.2c-0.1-1.8-0.1-3.6-0.1-5.4V267.5c0-91.2,73.9-165.2,165.1-165.3h0.1
						c12.3,0,24.6,1.3,36.6,4c10.7,2.4,21,5.9,31,10.4C559.5,143.3,597.7,202.3,597.8,267.5z"/>
					<path class="st2" d="M647.8,851.7L647.8,851.7H217.1l0,0c0-23.7,3.8-47.2,11.5-69.5c1.3-3.9,2.8-7.8,4.4-11.7l0,0
						c1.6-3.9,3.2-7.6,5-11.4c7.1-14.9,15.9-28.9,26.2-41.8c2.6-3.2,5.2-6.3,8-9.3c1.3-1.5,2.8-3,4.2-4.5c1.4-1.5,2.8-2.9,4.3-4.4
						c7.3-7.2,15-13.9,23.3-20.1c4.1-3,8.3-5.9,12.5-8.6s8.7-5.3,13.1-7.8c0,0,0.1-0.1,0.2-0.1c1.8-0.9,3.5-2,5.2-3
						c3.4-2,6.7-4.2,9.9-6.6c1.6-1.1,3.2-2.3,4.7-3.6c3.6-2.9,7.2-6.1,10.5-9.3c1.1-1.1,2.2-2.2,3.3-3.3c2.3-2.4,4.4-4.8,6.5-7.3
						c1-1.2,2-2.5,3-3.7s1.9-2.5,2.8-3.8c16.5-23,25.3-50.6,25.3-78.9l31.4,0.2l32.3,0.2c-0.1,41.3,18.7,80.5,51,106.3
						c1.5,1.2,3,2.4,4.5,3.5s3,2.2,4.5,3.2c0.3,0.2,0.6,0.5,0.9,0.7c1.5,0.9,2.9,2,4.5,2.8s3.4,2,5.1,3c0.3,0.1,0.5,0.2,0.7,0.4
						c3.6,2,7.1,4.1,10.5,6.2c1.7,1,3.3,2.1,5,3.3c3.3,2.2,6.6,4.5,9.9,7l0,0C615.7,720,647.8,783.9,647.8,851.7L647.8,851.7z"/>
					<path class="st3" d="M647.8,851.7H217.1c0-23.7,3.8-47.1,11.5-69.5c1.3-3.9,2.8-7.8,4.4-11.7l0,0c1.5-3.8,3.3-7.6,5-11.4
						c7.1-14.9,15.9-28.9,26.2-41.8c2.6-3.2,5.2-6.3,8-9.3c1.3-1.5,2.8-3,4.2-4.5c1.4-1.5,2.8-2.9,4.3-4.4c7.2-7.2,15-13.9,23.2-20
						c4.1-3,8.2-5.9,12.5-8.7s8.7-5.3,13.2-7.8c0,0,0.1,0,0.2,0l0,0c1.7-0.9,3.5-1.9,5.2-3c5.1-3.1,9.9-6.5,14.5-10.2l0.1,0.1
						c21.8,22.3,51.6,34.9,82.8,35h0.3c31.2,0,61.2-12.6,83-34.9l0,0c2.9,2.4,5.9,4.6,9,6.7c0.3,0.2,0.6,0.5,0.9,0.7
						c1.5,0.9,3,1.9,4.5,2.8c1.7,1,3.4,2,5.1,2.9c0.3,0.1,0.5,0.2,0.7,0.4c3.6,2,7.1,4.1,10.6,6.3c1.7,1,3.3,2.1,5,3.3
						c3.4,2.2,6.7,4.5,9.9,6.9h0.1C615.6,720,647.7,783.8,647.8,851.7z"/>
					<path class="st4" d="M597.8,390.9c0,1.8,0,3.6-0.1,5.4c-0.1,3.7-0.3,7.4-0.6,11c-0.1,1.3-0.2,2.5-0.4,3.8
						c-0.5,5.2-1.3,10.4-2.2,15.5c-0.3,1.7-0.7,3.4-1,5c0,0.3-0.1,0.7-0.2,1c-0.3,1.7-0.7,3.4-1.1,5c-0.2,1-0.5,1.9-0.7,2.8
						c-0.1,0.7-0.3,1.4-0.5,2.1c-0.9,3.3-1.9,6.6-2.8,9.8c-0.5,1.5-0.9,3-1.5,4.6c0,0.2-0.1,0.3-0.2,0.5c-0.5,1.4-0.9,2.8-1.5,4.1
						c-0.2,0.4-0.3,0.8-0.5,1.3c-0.5,1.3-0.9,2.6-1.5,3.9c-0.6,1.6-1.3,3.1-1.9,4.6s-1.2,2.8-1.8,4.1c-0.1,0.2-0.2,0.4-0.3,0.7
						c-0.7,1.5-1.3,2.9-2,4.3s-1.4,3-2.2,4.5c-1.5,3-3,5.9-4.6,8.8l-2.2,3.9c-6.1,10.6-13.1,20.7-20.8,30.2c-1,1.3-2.1,2.6-3.2,3.9
						c-1.5,1.9-3,3.6-4.6,5.4c-1.4,1.5-2.8,3.1-4.2,4.6c-3.9,4.3-7.9,8.3-12,12c-0.8,0.8-1.7,1.5-2.5,2.3c-1.4,1.3-2.8,2.5-4.2,3.7
						c-1.1,1-2.2,1.9-3.4,2.8c-2.9,2.4-5.8,4.7-8.8,6.9c-1.2,0.9-2.5,1.9-3.7,2.7c-2,1.5-4.1,2.8-6.2,4.2c-1.1,0.8-2.3,1.5-3.5,2.2
						c-4.1,2.5-8.4,4.9-12.5,6.9c-1,0.5-2,1-3,1.5s-2.1,0.9-3.2,1.5c-1.3,0.6-2.7,1.2-4,1.7c-0.5,0.2-1,0.4-1.6,0.6
						c-1.6,0.7-3.2,1.3-4.8,1.8c-2,0.7-4,1.3-6,1.9c-1.4,0.4-2.8,0.8-4.2,1.1c-0.1,0.1-0.2,0.1-0.3,0.1c-1.4,0.3-2.8,0.7-4.1,0.9
						c-0.4,0.1-0.7,0.2-1.1,0.2c-1.1,0.2-2.3,0.4-3.4,0.5c-1.6,0.2-3.3,0.4-4.9,0.5c-0.6,0.1-1.1,0.1-1.7,0.1
						c-1.3,0.1-2.6,0.1-3.9,0.1h-0.1c-1.3,0-2.5,0-3.8-0.1c-0.5,0-1,0-1.5-0.1c-1.1,0-2.3-0.2-3.5-0.3c-0.3,0-0.5,0-0.8-0.1
						c-1.5-0.2-3-0.5-4.5-0.7c-1.3-0.2-2.6-0.5-3.9-0.8c-7.3-1.7-14.5-4.1-21.3-7.2c-6.4-2.9-12.6-6.1-18.6-9.8
						c-3.1-1.8-6.2-3.9-9.3-6.1c-1.5-1.1-3.1-2.2-4.6-3.3c-4.8-3.5-9.6-7.4-14.3-11.5c-1.3-1.2-2.6-2.3-3.9-3.6s-2.6-2.4-3.9-3.6
						c-3.2-3-6.3-6.2-9.3-9.5c-1.2-1.2-2.3-2.5-3.5-3.9c-3.3-3.7-6.4-7.4-9.4-11.4c-1.2-1.4-2.3-2.9-3.4-4.3
						c-4.1-5.4-8-11.1-11.7-17c-0.9-1.6-2-3.2-2.9-4.8c-1.1-1.9-2.2-3.9-3.3-5.8c-4.1-7.4-7.8-14.9-11.1-22.7
						c-0.5-1.1-1-2.3-1.4-3.4c-0.6-1.5-1.2-3-1.8-4.4c-0.8-2.1-1.6-4.3-2.3-6.5s-1.4-4.3-2.1-6.5c-0.7-2.2-1.3-4.2-1.9-6.4
						c-0.6-2.2-1.3-4.6-1.8-7c0-0.2-0.1-0.5-0.2-0.7c-0.8-3.2-1.5-6.5-2.1-9.9c-0.8-4.4-1.5-8.9-2-13.4c-0.2-1.4-0.3-2.9-0.4-4.3
						s-0.3-3-0.4-4.5c-0.2-2.7-0.3-5.5-0.4-8.2c-0.1-1.8-0.1-3.6-0.1-5.4l26.4,51.9l45.4,19.8l53.6,4.8l39.8,3.6h0.2l37.2,3.4
						l82.9,7.4L597.8,390.9z"/>
					<path class="st4" d="M562.5,165.5c-8.1,18.2-18.5,35.3-31,50.7c-0.7,0.9-1.5,1.8-2.2,2.7c-25.7,31-59.2,54.6-97,68.4
						c-10.1,3.7-20.5,6.7-31,8.9c-7.1,1.5-14.3,2.7-21.7,3.5c-8.6,0.9-17.2,1.4-25.8,1.4c-9.8,0-19.7-0.6-29.4-1.9
						c-9.3-1.1-18.6-2.9-27.6-5.3c-5.2-1.3-10.2-2.8-15.2-4.5c-5-1.7-9.7-3.4-14.5-5.4v-16.8c0-91.2,73.9-165.2,165.1-165.3h0.1
						c12.3,0,24.6,1.3,36.6,4c10.7,2.4,21,5.9,31,10.4C524.6,127.6,546,144.4,562.5,165.5L562.5,165.5z"/>
					<path class="st4" d="M597.8,267.5V300c-28.2-21.8-51.5-49.4-68.4-80.9c0,0,0-0.1-0.1-0.2c-16.9-31.6-26.9-66.5-29.3-102.3
						C559.5,143.3,597.7,202.3,597.8,267.5z"/>
					<path class="st4" d="M286.5,280.2c-1.8,3-3.3,6.2-4.9,9.4c-0.6,1.3-1.2,2.6-1.9,3.9c-8,17.8-12,35.2-12.6,51v-62.3
						c0-2.3,0.1-4.5,0.1-6.7C273.7,277.2,280.1,278.8,286.5,280.2z"/>
					<path class="st4" d="M578.5,280.2c2.5,4.3,4.6,8.8,6.8,13.3c8.2,18.3,12.3,36.2,12.6,52.4v-63.7c0-2.2-0.1-4.5-0.1-6.7
						C591.4,277.2,585,278.8,578.5,280.2z"/>
					<path class="st5" d="M578.1,296.6c0-0.7-0.5-1.3-1.2-1.4c-20-2.9-40.2-4.4-60.5-4.5c-32.1,0-73.6,10.1-80.8,10.1h-6.4
						c-3.4,0-14.2-2.2-28-4.5c-15.9-2.7-35.7-5.6-52.8-5.6c-17.3,0.1-34.5,1.2-51.7,3.3c-4.1,0.5-7.2,0.9-8.8,1.2
						c-0.7,0.1-1.2,0.7-1.2,1.4l-0.3,17.3c0,0.6,0.4,1.1,1,1.3l2,0.7c2.9,1.1,2.6,53.1,18.1,66.1c9.2,7.7,17.4,12.1,52,12.1
						c20,0,32.6-5.4,44.6-21.5c8.6-11.6,16.2-38.9,16.2-38.9c2.3-11.3,10.7-12.2,12.1-12.3l0,0c0.3,0,9.8,0.2,12.2,12.3
						c0,0,7.6,27.4,16.3,38.9c11.9,16.1,24.5,21.6,44.5,21.6c34.5,0,42.7-4.4,52-12.1c15.5-13,15.3-65,18.1-66.1l2-0.7
						c0.6-0.2,0.9-0.8,0.9-1.4L578.1,296.6z M404,358.2c-5.1,12-18.2,27.5-36.7,28.5c-55.4,2.8-58-12.7-61.5-24.9
						c-3.5-11.4-4.6-23.4-3.1-35.3c1.5-12.3,4.5-19.4,10.1-23.1c2.4-1.6,5-3,11.6-4c6-0.9,15.2-1.4,30.5-1.4
						c8.3,0,16.5,0.6,24.6,1.9c19.7,3.2,33,9.9,33,16.5C412.7,320.8,411.5,340.4,404,358.2z M559.1,361.7
						c-3.6,12.3-6.1,27.7-61.5,24.9c-18.5-0.9-31.6-16.4-36.6-28.5c-7.5-17.8-8.7-37.4-8.7-41.9c0-9.1,25.3-18.4,57.7-18.4
						s37.6,2.4,42.2,5.4c5.6,3.6,8.7,10.8,10.1,23.1C563.7,338.3,562.7,350.3,559.1,361.7L559.1,361.7z"/>
					<path class="st4" d="M432.7,417v101.6h0l-0.1-0.1l-159.8-81.3c0-0.2-0.1-0.5-0.2-0.7c-0.8-3.2-1.5-6.5-2.1-9.9
						c-0.8-4.4-1.5-8.9-1.9-13.4c-0.2-1.4-0.3-2.9-0.5-4.3s-0.3-3-0.4-4.5c-0.2-2.7-0.3-5.5-0.4-8.2c0-1.8-0.1-3.6-0.1-5.4v-46.4
						c0.4,12.8,2.4,25.5,5.8,37.8c2.6,9.6,6.1,18.9,10.3,27.9l0,0c10.6,22.1,24.9,37.1,38,39.6c0.8,0.1,1.7,0.2,2.5,0.3
						c5.3,0.6,10.6,0.9,15.9,0.9c20.7,0,39.1-16.6,50.7-23.4l0.2-0.1c0.6-0.4,1.2-0.7,1.8-1.1c0.2-0.1,0.3-0.2,0.5-0.3
						c9.8-5.6,23.8-9.1,39.5-9.1L432.7,417z"/>
					<path class="st4" d="M597.8,342.4v48.5c0,12-1.1,23.9-3.3,35.7c-0.9,4.6-1.9,9.2-3,13.8l-37.4,54.1l-121.5,24.1h-0.1L432.3,417
						h0.3c15.7,0,29.7,3.6,39.5,9.1c0.2,0.1,0.3,0.2,0.5,0.3c0.6,0.4,1.2,0.7,1.8,1.1c0.1,0,0.1,0.1,0.2,0.1
						c11.6,6.7,30,23.4,50.7,23.4c5.3,0,10.6-0.3,15.9-0.9c0.9-0.1,1.7-0.2,2.5-0.3c13.1-2.4,27.3-17.5,38-39.6l0,0
						c4.3-9,7.8-18.3,10.3-27.9c3.5-12.5,5.4-25.4,5.8-38.4V342.4z"/>
					<ellipse class="st2" cx="432.5" cy="469.5" rx="40.5" ry="12.5"/>
					<path class="st6" d="M314.2,671.8v223.3H297V684.3c2.3-1.9,4.6-3.7,7-5.4C307.3,676.4,310.7,674,314.2,671.8z"/>
					<polygon class="st6" points="550.7,671.8 550.7,851.7 550.7,895.1 568,895.1 568,851.7 568,684.4 					"/>
					<polygon class="st7" points="385.2,658.1 432.5,714.7 479.7,658.1 					"/>
					<path class="st7" d="M432.5,949.2h-27.9l20.2-259.8c0.9,3.3,14.6,3.3,15.5,0l20.2,259.8H432.5z"/>
					<path class="st8" d="M432.5,657.8l-0.1,0.2v0.1L412.7,691l-18.3,30.7l-49.6-68.9c1.6-1.1,3.2-2.4,4.6-3.6l0.1,0.1
						c10-7.9,18.8-17.2,26.1-27.6l56.6,36L432.5,657.8z"/>
					<path class="st8" d="M520.1,652.8l-49.6,68.9L452.2,691l-19.6-32.9l-0.2-0.3l57-36.3c7.4,10.5,16.2,19.8,26.2,27.8
						C517.1,650.5,518.6,651.7,520.1,652.8z"/>
					<path class="st9" d="M432.3,102.2v749.5H217.1l0,0c0-23.7,3.8-47.2,11.5-69.5c1.3-3.9,2.8-7.8,4.4-11.7l0,0
						c1.5-3.9,3.2-7.6,5-11.4c7.1-14.9,15.9-28.9,26.2-41.8c2.6-3.2,5.2-6.3,8-9.3c1.3-1.5,2.8-3,4.2-4.5c1.4-1.5,2.8-2.9,4.3-4.4
						c5.2-5.1,10.6-10,16.3-14.6c2.3-1.8,4.6-3.7,7-5.4c3.4-2.5,6.8-4.9,10.3-7.1c0.8-0.5,1.5-1,2.3-1.5c4.3-2.8,8.7-5.4,13.1-7.8
						c0,0,0.1,0,0.2,0l0,0c1.8-1,3.5-2,5.2-3c3.4-2.1,6.7-4.3,9.8-6.6c1.6-1.1,3.2-2.4,4.6-3.6l0.1,0.1
						c19.8-15.8,34.8-36.8,43.4-60.6c-6.4-2.9-12.6-6.1-18.6-9.8c-3.1-1.9-6.2-3.9-9.3-6.1c-1.5-1.1-3.1-2.2-4.6-3.3
						c-4.8-3.5-9.6-7.4-14.3-11.5c-1.3-1.2-2.6-2.4-3.9-3.6s-2.6-2.4-3.9-3.6c-3.2-3-6.3-6.2-9.3-9.5c-1.2-1.2-2.4-2.5-3.5-3.9
						c-3.3-3.7-6.4-7.4-9.4-11.4c-1.2-1.4-2.3-2.9-3.4-4.3c-4.1-5.4-8-11.1-11.6-17c-0.9-1.6-2-3.2-2.9-4.8
						c-1.1-1.9-2.2-3.9-3.3-5.8c-4.1-7.4-7.8-15-11-22.8c-0.5-1.1-1-2.3-1.4-3.4c-0.6-1.5-1.2-3-1.8-4.4c-0.8-2.1-1.6-4.3-2.3-6.5
						c-0.7-2.1-1.4-4.4-2.1-6.5s-1.3-4.2-1.9-6.4s-1.3-4.6-1.8-6.9c0-0.2-0.1-0.5-0.2-0.7c-0.8-3.2-1.5-6.5-2.1-9.9
						c-0.8-4.4-1.5-8.8-1.9-13.4c-0.2-1.4-0.3-2.8-0.4-4.3s-0.3-3-0.4-4.5c-0.2-2.7-0.3-5.5-0.4-8.2c0-1.8-0.1-3.6-0.1-5.4V267.5
						C267.2,176.2,341.1,102.3,432.3,102.2z"/>
				</g>
			</g>
		</g>
	</g>
</g>
</svg>
